<?xml version="1.0" encoding="UTF-8"?>
<svg id="ttnet-logo" width="310" height="70" version="1.1" viewBox="0 0 310 70" xmlns="http://www.w3.org/2000/svg"><g transform="translate(-133.33 -20.981)"><circle cx="409.17" cy="51.538" r="19" style="fill:#036336"/><path d="m316 90.981h78.386v-19.683h-78.386z"/><g transform="scale(.89103 1.1223)" style="fill:#fff" aria-label="ИНТЕРНЕТ"><path d="m371.13 66.719v9.9285h-1.3034v-8.3059l-4.4023 8.3059h-1.8088v-9.9285h1.3034v8.3059l4.4023-8.3059z"/><path d="m373.81 66.719h1.3433v4.0698h4.8811v-4.0698h1.3433v9.9285h-1.3433v-4.7282h-4.8811v4.7282h-1.3433z"/><path d="m382.67 66.719h8.399v1.1305h-3.5245v8.798h-1.35v-8.798h-3.5245z"/><path d="m392.37 66.719h6.2776v1.1305h-4.9343v2.9393h4.7282v1.1305h-4.7282v3.5977h5.054v1.1305h-6.3973z"/><path d="m402.33 67.823v3.7307h1.6891q.93765 0 1.4497-.48545.51206-.48545.51206-1.3832 0-.8911-.51206-1.3766-.51205-.48545-1.4497-.48545zm-1.3433-1.1039h3.0324q1.6692 0 2.5204.7581.85785.75145.85785 2.2078 0 1.4697-.85785 2.2211-.85121.75145-2.5204.75145h-1.6891v3.99h-1.3433z"/><path d="m409.21 66.719h1.3433v4.0698h4.8811v-4.0698h1.3433v9.9285h-1.3433v-4.7282h-4.8811v4.7282h-1.3433z"/><path d="m419.45 66.719h6.2776v1.1305h-4.9343v2.9393h4.7282v1.1305h-4.7282v3.5977h5.054v1.1305h-6.3973z"/><path d="m426.69 66.719h8.399v1.1305h-3.5245v8.798h-1.35v-8.798h-3.5245z"/></g><path d="m306.71 43.424 9.841.02011v17.924h3.7981v-17.915l9.6589-.01479v-3.953h-23.298v3.9391"/><path d="m204.03 43.424 9.8407.02011v17.924h3.799v-17.915l9.6598-.01479v-3.953h-23.299v3.9391"/><path d="m282.59 61.369h19.812v-3.7561l-15.991.02708-.14263-5.6717h9.8682v-3.5155l-9.8723.01913v-5.047h16.134v-3.9391h-19.812v21.576"/><path d="m231.23 61.369h19.813v-3.7561l-15.991.02708-.14383-5.6717h9.8666l.0109-3.5155-9.8731.01913v-5.047h16.135v-3.9391h-19.813v21.576"/><path d="m254.22 61.182 11.422-21.697h2.4683l11.644 21.883h-4.9725l-7.7956-15.887-7.8661 15.887h-5.0437"/><path d="m332.42 61.18 11.427-21.694h2.9066l11.599 21.883h-5.0523l-7.9141-16.136-7.9916 16.136h-5.1216"/><path d="m341.12 53.168h8.1641l1.7625 3.5984h-11.368l1.4418-3.5984"/><path d="m364.01 39.485h3.6635v15.482l15.551-15.482h4.3362v21.883h-3.813l-.0747-15.664-15.551 15.664h-4.112v-21.883"/><path d="m396.16 61.369v-21.883h4.5604l8.5229 11.753 8.4481-11.753h4.487v21.883h-4.188l-.072-13.943-8.1506 11.066-1.4948.14812-7.8761-11.234-.12501 13.962h-4.112" style="fill:#fff"/><path d="m371.23 39.799h9.0827v-3.5506h-9.0827z"/><path d="m203.54 90.981h106.29v-19.683h-106.29z" style="fill:#036336"/><g transform="matrix(.89103 0 0 1.1223 -8 0)" style="fill:#fff" aria-label="КАБЕЛЬНОЕ ТВ"><path d="m243.68 66.655h1.3433v4.9077l4.8013-4.9077h1.7224l-3.8371 3.9235 4.0366 6.005h-1.463l-3.4447-5.1139-1.8155 1.8554v3.2585h-1.3433z"/><path d="m256.68 67.979-1.8221 4.941h3.6509zm-.7581-1.3234h1.5228l3.7839 9.9285h-1.3965l-.9044-2.547h-4.4755l-.9044 2.547h-1.4164z"/><path d="m268.3 73.665q0-.92435-.52535-1.3699-.5187-.4522-1.6026-.4522h-2.1546v3.6376h2.1546q1.084 0 1.6026-.44555.52535-.4522.52535-1.3699zm.71821-7.0091v1.1039h-5.0008v2.9792h2.2211q1.6692 0 2.5736.72485.9044.72485.9044 2.2012 0 1.4697-.8778 2.1945-.87116.72485-2.6002.72485h-3.5644v-9.9285z"/><path d="m272.01 66.655h6.2776v1.1305h-4.9343v2.9393h4.7282v1.1305h-4.7282v3.5977h5.054v1.1305h-6.3973z"/><path d="m279.85 76.584v-1.1305q1.4431-.31255 1.8554-1.4032.57855-1.7157.57855-5.7057v-1.6891h5.9052v9.9285h-1.3433v-8.798h-3.2253v1.2236q0 3.7639-.67831 5.5195-.6517 1.6825-3.0923 2.0549z"/><path d="m296.49 73.665q0-.92435-.52535-1.3766-.5187-.44555-1.6026-.44555h-2.1546v3.6376h2.1546q1.084 0 1.6026-.4522.52535-.44555.52535-1.3633zm-5.6259-7.0091h1.3433v4.0831h2.2211q1.6692 0 2.5736.72485.90441.72485.90441 2.2012 0 1.4697-.90441 2.1945-.9044.72485-2.5736.72485h-3.5644z"/><path d="m300.2 66.655h1.3433v4.0698h4.8811v-4.0698h1.3433v9.9285h-1.3433v-4.7282h-4.8811v4.7282h-1.3433z"/><path d="m314.48 67.567q-1.463 0-2.3275 1.0906-.85785 1.0906-.85785 2.9726 0 1.8753.85785 2.9659.8645 1.0906 2.3275 1.0906 1.463 0 2.3142-1.0906.85786-1.0906.85786-2.9659 0-1.882-.85786-2.9726-.8512-1.0906-2.3142-1.0906zm0-1.0906q2.0881 0 3.3383 1.4032 1.2502 1.3965 1.2502 3.7506 0 2.3475-1.2502 3.7506-1.2502 1.3965-3.3383 1.3965-2.0948 0-3.3516-1.3965-1.2502-1.3965-1.2502-3.7506 0-2.3541 1.2502-3.7506 1.2568-1.4032 3.3516-1.4032z"/><path d="m321.16 66.655h6.2776v1.1305h-4.9343v2.9393h4.7282v1.1305h-4.7282v3.5977h5.054v1.1305h-6.3973z"/><path d="m332.74 66.655h8.399v1.1305h-3.5245v8.798h-1.35v-8.798h-3.5245z"/><path d="m343.79 71.842v3.6376h2.1546q1.084 0 1.6026-.44555.52535-.4522.52535-1.3766 0-.931-.52535-1.3699-.5187-.44555-1.6026-.44555zm0-4.0831v2.9925h1.9884q.98421 0 1.463-.36575.48545-.3724.48545-1.1305 0-.75145-.48545-1.1239-.4788-.3724-1.463-.3724zm-1.3433-1.1039h3.4314q1.5362 0 2.3674.6384.83126.6384.83126 1.8155 0 .91105-.42561 1.4497-.4256.53865-1.2502.67165.99085.2128 1.5362.8911.55196.67165.55196 1.6825 0 1.33-.90441 2.0549-.9044.72485-2.5736.72485h-3.5644z"/></g><path d="m158.6 55.969 15.85-31.088h16.856l-15.786 31.088 15.815 31.088h-16.888z" style="fill:#036336"/><path d="m133.33 56.013 15.85-31.088h16.855l-15.786 31.088 15.815 31.088h-16.888z"/><path d="m175.45 30.375 4.6144-2.1292v1.1033h4.6493v2.0053h-4.6493v1.1497z" style="fill-rule:evenodd;fill:#197254"/><path d="m175.45 82.1 4.6144-2.1292v1.1033h4.6493v2.0053h-4.6493v1.1497z" style="fill-rule:evenodd;fill:#197254"/><path d="m168.44 69.169 4.6144-2.1292v1.1033h4.6493v2.0053h-4.6493v1.1497z" style="fill-rule:evenodd;fill:#197254"/><path d="m168.44 43.306 4.6144-2.1292v1.1033h4.6493v2.0053h-4.6493v1.1497z" style="fill-rule:evenodd;fill:#197254"/><path d="m162.83 56.238 4.6144-2.1292v1.1033h4.6493v2.0053h-4.6493v1.1497z" style="fill-rule:evenodd;fill:#197254"/><path d="m150.22 30.375 4.6144-2.1292v1.1033h4.6493v2.0053h-4.6493v1.1497z" style="fill-rule:evenodd;fill:#1a1a1a"/><path d="m150.22 82.1 4.6144-2.1292v1.1033h4.6493v2.0053h-4.6493v1.1497z" style="fill-rule:evenodd;fill:#1a1a1a"/><path d="m143.21 69.169 4.6144-2.1292v1.1033h4.6493v2.0053h-4.6493v1.1497z" style="fill-rule:evenodd;fill:#1a1a1a"/><path d="m143.21 43.306 4.6144-2.1292v1.1033h4.6493v2.0053h-4.6493v1.1497z" style="fill-rule:evenodd;fill:#1a1a1a"/><path d="m137.61 56.238 4.6144-2.1292v1.1033h4.6493v2.0053h-4.6493v1.1497z" style="fill-rule:evenodd;fill:#1a1a1a"/><circle cx="440.85" cy="23.461" r="2.48" style="fill:#036336"/><circle cx="430.27" cy="31.392" r="8.1" style="fill:#036336"/></g></svg>
