<?xml version="1.0" encoding="UTF-8"?>
<svg width="200" height="60" version="1.1" viewBox="0 0 200 60" xmlns="http://www.w3.org/2000/svg"><g transform="translate(0 -992.36)"><g transform="translate(-85.498 883.03)"><g transform="translate(0 -1.5429)"><path d="m174.15 119.14 6e-5-1.8914h1.9728 1.9728v.4487.4487l-1.276.0138c-1.4242.0154-1.4932.0259-1.4932.22908 0 .17673.0936.19677 1.0923.23377 1.246.0462 1.439.10775 1.7024.54324.22934.37915.24568.84878.0438 1.2606-.13123.26775-.29087.39065-.60321.46436-.19808.0467-1.6316.11255-2.8779.13211l-.53398.008 6e-5-1.8914zm2.9105.85493c.0777-.0272.15914-.079.18099-.11506.0326-.0538.0217-.0812-.0611-.1532-.17551-.15261-.46114-.21505-.98512-.21536-.5067-3e-4-.77817.0634-.85107.19959-.0574.10719-.0426.28094.0276.32474.093.058 1.5041.024 1.6887-.0407z" style="fill:#0071bc"/><path d="m169.75 120.95c-.51409-.0756-.95471-.54383-1.1755-1.2493-.10343-.33041-.11296-.90624-.0207-1.2488.18061-.67053.51203-1.0029 1.198-1.2015.2644-.0765.35802-.0835 1.121-.0829.90245.00064 1.129.033 1.518.21708.5965.28219.92187.94893.8806 1.8045-.0289.59911-.21886 1.025-.63353 1.4202-.24731.23575-.38373.30328-.69334.34323-.28741.0371-1.9381.0352-2.1946-.003zm1.7071-.90876c.20796-.0361.26982-.0645.38031-.17469.16658-.16617.24813-.42964.24813-.80171 0-.34256-.079-.6016-.2415-.79138-.10016-.11702-.15913-.1503-.32938-.18589-.26535-.0555-1.081-.0225-1.3316.0539-.21451.0653-.30765.15416-.42093.40142-.11925.2603-.117.81944.004 1.0948.0989.22428.27949.39577.44502.42257.0651.0105.15914.0265.20891.0355.14198.0256.76282-.007 1.0367-.0545z" style="fill:#0071bc"/><path d="m184.41 121.77c-.039-.0595-.0657-.2152-.0816-.47498l-.0237-.38651h-2.6912-2.6913v-1.828-1.828h.56107.56107v1.3574 1.3574h.61537.61537v-1.3574-1.3574h.57917.57917v1.3574 1.3574h.61536.61537v-1.3574-1.3574h.57536.57535l.0129 1.2595c.0116 1.1314.0194 1.2694.077 1.3574.0451.0687.0951.0979.16793.0979.0571 0 .1422.0311.18921.0692.0842.0682.0855.0791.0855.73301 0 .4885-.0128.68629-.0485.749-.0582.10209-.45073.28779-.67276.31822-.14002.0192-.16475.0115-.21609-.0668z" style="fill:#0071bc"/><path d="m185.91 119.08v-1.828h1.9728 1.9728v.45248.45248l-1.0769.002c-1.052.002-1.578.0318-1.6388.0941-.0728.0746-.075.21777-.005.30474l.0714.0882 1.9974.0224v.46845.46845l-.91401 2e-4c-.506.00011-.97298.0166-1.0461.0369-.24254.0674-.2074.22758.0637.29047.0775.018.68245.0331 1.3444.0335l1.2036.00086v.47057.47058h-1.9728-1.9728v-1.828z" style="fill:#0071bc"/><path d="m192.25 120.98c-.71971-.0542-1.0779-.17025-1.3428-.43515-.2979-.29789-.39344-.65305-.39344-1.4625 0-1.0391.18363-1.4474.77529-1.7237.37001-.17279.81526-.22125 1.8924-.20594 1.2727.0181 1.3129.0376 1.3129.63776v.339l-.73302-.0303c-1.3688-.0566-1.6991-.0277-1.9076.16699-.14242.13304-.18245.31095-.18268.81203-.00024.50565.0421.67613.20296.81737.19361.17.41323.19559 1.4436.16818.4976-.0132.96591-.0339 1.0407-.0458l.13598-.0217v.3468c0 .38691-.0359.50297-.17541.56651-.22133.10085-1.2159.13477-2.0689.0706z" style="fill:#0071bc"/><path d="m196.52 119.53v-1.3755h-.72396-.72397v-.45248-.45248h2.0995 2.0995v.45248.45248h-.79636-.79635v1.3755 1.3755h-.57917-.57917v-1.3755z" style="fill:#0071bc"/><path d="m199.7 119.07v-1.9588l.0995.00052c.63646.003 2.7389.0805 2.9759.10918.3259.0395.61707.11974.75186.20729.17505.11369.33414.5096.33504.83374.00046.16596-.0669.31477-.27149.59978-.15334.21361-.15662.25892-.0221.3058.33858.11803.5152.79844.31658 1.2196-.10366.21982-.20369.316-.43514.41838-.35833.15851-.63892.1841-2.2389.20424l-1.5113.019v-1.9588zm2.9592.9545c.10559-.0314.20506-.0864.22565-.12487.0557-.10402.0443-.20715-.0265-.24006-.0348-.0162-.45429-.0347-.9321-.0411-.98936-.0132-1.0426-.003-1.0606.21149-.0135.16036.0511.21981.27742.25513.278.0434 1.3041.002 1.5162-.0606zm-.3529-1.4294c.54278-.0915.71589-.32959.34035-.46819-.2001-.0738-1.6405-.0795-1.7283-.007-.0734.0608-.0842.43531-.0147.50815.0533.0559 1.0079.0333 1.4027-.0332z" style="fill:#0071bc"/><path d="m204.74 119.08v-1.828h1.9728 1.9728v.44874.44874l-1.2957.0128c-1.1662.0115-1.3055.0192-1.3936.077-.0742.0486-.0979.0936-.0979.1856 0 .2159.0176.21959 1.1095.23243l.98996.0116v.46798.46799l-.914.002c-.98647.002-1.1586.0267-1.1786.16745-.0231.16259.0641.17361 1.4682.18551l1.3122.0111v.46851.46851h-1.9728-1.9728v-1.828z" style="fill:#0071bc"/><path d="m209.37 119.08v-1.828h.57917.57917v.70587.70586h1.0136 1.0135v-.70586-.70587h.57917.57917v1.828 1.828h-.57917-.57917v-.65157-.65156h-1.0135-1.0136v.65156.65157h-.57917-.57917v-1.828z" style="fill:#0071bc"/><path d="m214.51 119.08v-1.828h.57917.57917v.70587.70586h1.0136 1.0135v-.70586-.70587h.57917.57917v1.828 1.828h-.57917-.57917v-.65157-.65156h-1.0135-1.0136v.65156.65157h-.57917-.57917v-1.828z" style="fill:#0071bc"/><path d="m219.6 120.88c-.15584-.0374-.18979-.11591-.13081-.30248.0482-.1524 1.519-3.1032 1.6046-3.2193.0349-.0473.15855-.0626.67711-.0837l.63444-.0259.87683 1.7358c.48226.95467.87683 1.7617.87683 1.7934 0 .084-.15014.11331-.58079.11331-.46138 0-.522-.0304-.69063-.34682-.18471-.34654-.16606-.34094-1.1357-.34094-.98071 0-.97234-.003-1.1366.35954-.0591.1303-.14102.25053-.1878.27557-.0948.0507-.65033.0793-.80751.0416zm2.4361-1.5227c.1335-.0374.16857-.11981.11987-.28178-.0517-.17194-.41206-.78897-.45676-.7821-.0341.005-.41554.89804-.41827.97898-.00086.0255.0351.0611.0799.0791.0941.0378.54689.0417.67528.006z" style="fill:#0071bc"/><path d="m224.7 120.88c-.17067-.0282-.23529-.0628-.23529-.12608 0-.0254.13031-.26433.28959-.53098.15927-.26666.28958-.51447.28958-.5507 0-.0362-.08-.14591-.17786-.24373-.52371-.52371-.4704-1.6694.0943-2.0275.32557-.20647.49289-.22515 2.174-.24275l1.5294-.016v1.8854 1.8853h-.57917-.57917l-.004-.47962c-.002-.2638-.0151-.52035-.0291-.57012-.0294-.10434-.0559-.10617-.63154-.0436-.44166.048-.54418.11145-.84909.52522-.28856.39159-.39108.48409-.58612.52889-.17823.0409-.47937.0436-.70586.006zm2.5093-2.0532c.16402-.0452.2003-.0715.24434-.17685.0688-.16471.0668-.43159-.004-.50217-.0866-.0867-.26523-.10433-.87803-.0869-.56943.0162-.80871.066-.88364.18388-.0477.0751-.0317.29538.0277.38015.18132.25888.92284.35914 1.4934.20192z" style="fill:#0071bc"/><path d="m231.09 119.08v-1.828h2.0995 2.0995v1.828 1.828h-.57917-.57917v-1.3755-1.3755h-.94115-.94115v1.3755 1.3755h-.57917-.57917v-1.828z" style="fill:#0071bc"/><path d="m236.12 119.02v-1.8841l3.1673.0216.19909.0952c.22908.10956.58886.4207.67914.58733.079.1458.0885.99178.0144 1.28-.17427.67757-.82757.95979-2.0871.90164-.27873-.0129-.576-.0335-.66062-.0459l-.15384-.0225v.47534.47534h-.57917-.57917v-1.8841zm2.4432.0744c.32846-.0538.51336-.22358.55127-.50625.0288-.21434-.0616-.37524-.25701-.4578-.11973-.0506-.29078-.0661-.86419-.0783l-.71491-.0152v.3815c0 .42008.0297.54179.14746.60483.18227.0975.75686.13352 1.1374.0712z" style="fill:#0071bc"/><path d="m242.18 120.95c-.53162-.0829-1.0036-.59845-1.1968-1.3074-.0984-.36092-.0829-.95086.0344-1.3093.20258-.61896.5311-.91908 1.2036-1.0995.35822-.0961 1.793-.0989 2.1651-.004.55199.1405.89124.38855 1.0916.79813.31714.64838.30881 1.4713-.0212 2.0904-.1562.29306-.61331.72907-.83061.79227-.18786.0546-2.1465.0864-2.4462.0396zm1.4358-.87172c.53597-.0655.6544-.12881.80141-.42866.0698-.14242.0822-.22664.0833-.56552.001-.37128-.006-.41286-.10737-.61537-.18676-.37352-.39185-.44435-1.1741-.40554-.48737.0242-.74521.0924-.87964.23275-.38185.39866-.2873 1.5089.14564 1.7103.2171.10097.66206.12932 1.1308.0721z" style="fill:#0071bc"/><path d="m246.44 119.08v-1.828h1.828 1.828v.45248.45248h-1.2488-1.2488v1.3755 1.3755h-.57917-.57917v-1.828z" style="fill:#0071bc"/><path d="m250.67 119.02v-1.8844l1.6018.0116c1.2119.009 1.6282.0231 1.7104.0586.1834.0794.62659.43909.71381.57935.0767.12331.0825.17269.0825.69383 0 .46987-.0116.59247-.0716.75428-.22005.59351-.8364.83537-2.0098.78866-.30859-.0123-.6303-.0327-.71491-.0453l-.15384-.023v.47534.47534h-.57917-.57917v-1.8844zm2.7022-.003c.20559-.10344.30229-.26613.30229-.5086 0-.19939-.0899-.32153-.28959-.39352-.0786-.0283-.39794-.0518-.8416-.0619l-.71491-.0162 2e-4.33861c.00023.38849.0458.59343.14368.6458.12931.0692.45422.10533.84134.0935.3209-.01.41744-.0267.55859-.0977z" style="fill:#0071bc"/><path d="m255.06 120.87c-.17724-.0544-.17843-.13753-.008-.5318.13183-.30423.79055-1.6177 1.3592-2.7102l.17161-.32969.62992-.0252c.55492-.0222.63497-.0183.67234.0328.10435.14271 1.7241 3.3876 1.7241 3.454 0 .10262-.12216.12996-.58079.12996-.46005 0-.51443-.0272-.68165-.34094-.18709-.35102-.17325-.34682-1.1431-.34682-.63096 0-.85493.0118-.91938.0485-.0475.0271-.13159.15083-.19001.27968-.059.13011-.14639.2584-.19992.29347-.11175.0732-.64995.1031-.83474.0463zm2.4612-1.5211c.0757-.021.14648-.061.15715-.0889.0311-.0811-.42393-.99464-.49542-.99464-.0136 0-.0583.0855-.0994.19004-.0411.10452-.13156.3267-.20104.49372-.12956.31145-.13495.38619-.0298.41402.12036.0319.53418.023.66859-.0143z" style="fill:#0071bc"/><path d="m260.08 119.08v-1.8307l1.0433.0234.13898.11205c.0764.0616.31654.34451.53358.62862.21703.28411.48194.60834.58868.7205l.19407.20394.16489-.18099c.0907-.0995.33339-.40089.53933-.66966.64778-.84543.62735-.83256 1.3208-.83256h.47174v1.828 1.828h-.57917-.57917v-.98036c0-.56607-.0138-.97527-.0326-.9683-.0179.007-.17948.20075-.35901.43137-.52745.67753-.74898.83867-1.0701.77842-.20517-.0385-.39368-.20988-.80504-.73194l-.39377-.49974-.01.98528-.01.98527h-.57858-.57859v-1.8307z" style="fill:#0071bc"/><path d="m266.02 119.08v-1.828h.47725c.67689 0 .67117-.003 1.2752.77482.26564.34229.5425.68545.61523.76258l.13225.14022.14643-.142c.0805-.0781.35038-.40706.59964-.73103.24927-.32397.51139-.63347.5825-.68776.12477-.0953.14743-.0991.64807-.11045l.51879-.0117v1.8307 1.8307h-.57859-.57859l-.02-1.9645-.30694.39403c-.42329.54339-.57447.70189-.7428.77878-.39377.17986-.61425.0447-1.2475-.76483-.16352-.20904-.31216-.38551-.33033-.39214-.0194-.007-.033.39289-.033.9683v.98036h-.57917-.57917v-1.828z" style="fill:#0071bc"/><path d="m271.74 120.86c-.0694-.0251-.13162-.0736-.13819-.10784-.0197-.10264.25534-.70604.86253-1.8924.31588-.61718.62816-1.2238.69398-1.3481l.11966-.22594.23528-.00046c.12941-.00025.41447-.0107.63347-.0232l.39818-.0228.73018 1.4256c.7509 1.4661 1.0254 2.033 1.0254 2.1178 0 .0748-.16384.10422-.58079.10422-.46198 0-.52969-.0339-.68615-.34388-.1745-.34569-.16853-.34388-1.1386-.34388-.63096 0-.85493.0118-.91938.0485-.0475.0271-.13159.15083-.19001.27968-.0576.12714-.14583.25803-.19597.29088-.11978.0785-.67262.10571-.8496.0418zm2.4701-1.5135c.13542-.0376.15115-.0604.13613-.19719-.0123-.11208-.42731-.88648-.47521-.88673-.0227-.00012-.43154.97173-.43063 1.0236.002.0912.51402.13129.76971.0603z" style="fill:#0071bc"/><path d="m168.7 134.52v-5.8336h6.7175 6.7175v5.8336 5.8336h-1.6764-1.6763l-.0944-8.9272-6.6291-.0962v4.5117 4.5117h-1.6794-1.6794v-5.8336z" style="stroke-opacity:0"/><path d="m183.9 140.15c0-.20932 4.2612-8.6154 5.3038-10.463l.57029-1.0105 3.5834.1004 1.0269 1.9445c2.1863 4.1401 4.7184 9.1875 4.7184 9.4057 0 .17007-.4079.22863-1.5926.22863h-1.5926l-.56662-1.149-.56663-1.149h-3.2829-3.2829l-.56662 1.149-.56663 1.149h-1.5926c-1.0944 0-1.5926-.0644-1.5926-.20597zm9.3607-4.8629c.0848-.0743-1.0691-2.5015-1.5348-3.2285-.27502-.42932-.27908-.42485-1.1251 1.2374-.46702.91757-.85317 1.7632-.85811 1.8791-.005.12186.30802.2385.74233.27645.77964.0681 2.6359-.0419 2.7757-.16448z" style="stroke-opacity:0"/><path d="m203.48 135.89-.0472-4.4636-5.0381-.098v-1.321-1.321h6.8059 6.8059v1.3258 1.3258h-2.5633-2.5633v4.5078 4.5078h-1.6763-1.6763l-.0472-4.4636z" style="stroke-opacity:0"/><path d="m213.96 134.53v-5.8303l.48032-.12056c.26418-.0663 2.5114-.12748 4.9939-.13595 4.9133-.0168 5.1279.0186 6.5116 1.074.88185.67261 1.1496 1.4579 1.1466 3.3628-.004 2.2309-.41541 3.0708-1.9072 3.889l-1.0607.58173-6.8059.004v1.5026 1.5026h-1.6794-1.6794v-5.8303zm8.1518-.003c.59308-.11017 1.0689-.31757 1.2616-.54991.42383-.51106.40851-1.7631-.0282-2.303-.32562-.40259-.43824-.41932-3.1888-.47378l-2.8512-.0564.102 3.2949.88388.10481c1.4781.17527 2.8195.16947 3.8208-.0165z" style="stroke-opacity:0"/><path d="m229.51 134.52v-5.8336h1.7642 1.7642l.0477 3.7125.0477 3.7124 6.7175-7.4133 3.6239-.012v5.8336 5.8336h-1.7678-1.7678v-3.6239c0-1.9932-.0597-3.6226-.13259-3.621-.0729.002-1.6042 1.6297-3.403 3.618l-3.2704 3.6151-3.6239.012v-5.8336z" style="stroke-opacity:0"/><path d="m250.44 140.45c-1.8167-.39511-3.1083-1.2836-3.8321-2.6362-.3475-.64941-.38733-.98742-.38733-3.2871 0-2.946.18708-3.5175 1.5267-4.6642 1.4027-1.2007 2.2142-1.3738 6.1523-1.312 3.4286.0537 3.4668.0586 4.4865.57492 1.1258.56998 1.9597 1.4045 2.3814 2.3832.42225.97995.51056 4.5106.14068 5.6242-.60319 1.816-2.2231 3.0326-4.5229 3.3965-1.5668.24796-4.6282.20712-5.9453-.0793zm6.0748-2.9719c.85464-.45723 1.1652-1.2095 1.1819-2.863.0173-1.7131-.2494-2.4234-1.1113-2.9594-.58076-.36115-.8617-.39931-2.9402-.39931-2.5974 0-3.2207.19842-3.7326 1.1882-.37918.73325-.51438 2.504-.2623 3.4354.44357 1.639 1.2995 2.032 4.26 1.9561 1.5113-.0388 2.1796-.13061 2.6045-.35792z" style="stroke-opacity:0"/><path d="m268.05 135.85v-4.5078h-2.4749-2.4749v-1.3258-1.3258h6.8059 6.8059v1.3211 1.3211l-5.2149.0978-.0944 8.9272h-1.6764-1.6763v-4.5078z" style="stroke-opacity:0"/><path d="m168.7 155.56v-5.8336h5.8336 5.8336v1.3226 1.3226l-8.2201.0949-.0944 8.9272h-1.6763-1.6763v-5.8336z" style="stroke-opacity:0"/><path d="m186.62 161.48c-1.8167-.39511-3.1083-1.2836-3.8321-2.6362-.3475-.64941-.38733-.98742-.38733-3.2871 0-2.4564.0196-2.5964.46931-3.3588.60289-1.0219 1.0719-1.4482 2.2707-2.0639l.97227-.49936h3.7123 3.7123l1.149.63327c1.3805.76086 2.1919 1.7482 2.4586 2.9918.28431 1.3257.24234 4.0339-.077 4.9712-.57255 1.6803-1.9864 2.8051-4.085 3.2497-1.5007.31796-4.8998.31762-6.3631-.00064zm5.8893-2.9081c1.0435-.47375 1.3455-1.1435 1.3597-3.0152.0209-2.748-.64024-3.2711-4.1322-3.2692-2.5018.001-3.1383.20869-3.6442 1.187-.37918.73325-.51438 2.504-.2623 3.4354.42557 1.5725 1.2764 1.988 4.0833 1.9938 1.452.003 2.0172-.0692 2.5957-.3319z" style="stroke-opacity:0"/><path d="m199.99 155.57v-5.8256l.66291-.12598c.36461-.0693 2.6119-.13255 4.994-.14059 4.1969-.0142 4.3598-.002 5.2604.40545 1.6736.75649 2.3422 1.9012 2.3358 3.9994-.006 2.1321-.41819 2.996-1.8533 3.8891l-.85217.53033-7.1005.1768-.0514 1.4584-.0513 1.4584h-1.6722-1.6722v-5.8256zm9.051-.19129c.93987-.43122 1.0524-2.1433.18567-2.825-.39864-.31357-.72092-.35045-3.0629-.35045-1.4396 0-2.6436.0597-2.6758.13258-.0321.0729-.0311.82452.002 1.6702l.0607 1.5376.82696.0773c1.4054.13131 4.1609-.0118 4.6631-.24222z" style="stroke-opacity:0"/><path d="m219.85 161.48c-1.8167-.39511-3.1083-1.2836-3.8321-2.6362-.3475-.64941-.38733-.98742-.38733-3.2871 0-2.4564.0196-2.5964.46931-3.3588.60289-1.0219 1.0719-1.4482 2.2707-2.0639l.97227-.49936h3.7123 3.7123l1.149.63327c1.3805.76086 2.1919 1.7482 2.4586 2.9918.28431 1.3257.24234 4.0339-.0771 4.9712-.57255 1.6803-1.9864 2.8051-4.085 3.2497-1.5007.31796-4.8998.31762-6.3631-.00064zm5.8893-2.9081c1.0435-.47375 1.3455-1.1435 1.3597-3.0152.0209-2.748-.64024-3.2711-4.1322-3.2692-2.5018.001-3.1383.20869-3.6442 1.187-.37918.73325-.51438 2.504-.2623 3.4354.42557 1.5725 1.2764 1.988 4.0833 1.9938 1.452.003 2.0172-.0692 2.5957-.3319z" style="stroke-opacity:0"/><path d="m232.34 161.69v-2.8872l.83854-.16221c.63698-.12322.88996-.27011 1.0525-.61114.11767-.24691.29809-1.7186.40095-3.2704.10285-1.5518.23219-3.3186.28742-3.9263l.10041-1.1048h5.9963 5.9963v4.5078 4.5078h.97228.97227v2.3727 2.3727l-1.0889.54413c-.59889.29927-1.2751.54413-1.5026.54413-.40131 0-.41371-.045-.41371-1.5026v-1.5026h-5.3033-5.3033v.97977.97978l-1.1048.52269c-1.9595.92701-1.9004 1.0006-1.9004-2.3642zm11.274-6.0842-.0483-3.1378-5.3917-.0976-.004.40235c-.008.77098-.32597 4.4736-.44821 5.2195l-.12312.7513h3.0319 3.0319l-.0483-3.1378z" style="stroke-opacity:0"/><path d="m249.76 161c.0653-.21876 1.3892-2.8439 2.942-5.8336l2.8232-5.4359 3.5975.002.67359 1.2803c2.587 4.9171 5.0716 9.8668 5.0716 10.103 0 .2362-.25544.28106-1.6003.28106h-1.6003l-1.0754-2.2981h-3.2554-3.2554l-1.1332 2.2981h-1.6534c-1.6319 0-1.6518-.005-1.5346-.39775zm9.4078-4.6266c.0714-.0714-.98373-2.2223-1.5344-3.1279l-.3394-.55809-.89763 1.7887c-.49369.9838-.89763 1.8249-.89763 1.8691 0 .22902 3.4418.25542 3.6691.0282z" style="stroke-opacity:0"/></g><g transform="matrix(.46156 0 0 .46156 342.61 180.08)"><g transform="translate(-42.941 -133.45)"><g transform="translate(-115.5 -142.05)"><path d="m-268.77 179.15c-3.3125-1.235-5.2822-4.3241-5.2991-8.3107-.01-2.2219.15397-2.914 1.0469-4.4352 3.1718-5.4029 10.096-6.224 14.417-1.7096 3.1244 3.2637 3.2116 8.9118.18692 12.103-2.333 2.4614-7.1338 3.5523-10.352 2.3525z" style="fill:#0071bc;stroke-opacity:0"/><path d="m-291.5 206.03c-.2147-.11948.72706-1.9918 1.8086-4.3379 7.2775-15.787 9.0798-33.479 4.7053-46.398-.55657-1.6437-2.0506-4.7202-3.2633-6.5894-1.2173-1.8762-2.0335-3.0881-1.8432-3.6463.80561-.4224 2.5658.68773 8.1145 4.1596 6.0167 3.7646 7.3539 5.2399 9.4045 8.4718 1.8306 2.8852 2.2136 3.8575.14038 6.7914-1.993 2.8204-2.3281 4.5851-2.3174 6.9454.009 2.1081.88768 4.1314 2.8343 6.5308 1.2153 1.4979 1.3563 1.8822 1.2142 3.3078-.19311 1.9368-2.9507 7.5767-5.4477 11.142-2.1056 3.0063-7.8943 8.9506-11.044 11.279-2.0897 1.5447-3.5886 2.7438-4.3064 2.3443z" style="fill:#0071bc;stroke-opacity:0"/></g><g transform="matrix(.62884 -.77754 .77754 .62884 -377.36 -320.06)" style="fill:#ccc"><path d="m-268.83 179.11c-3.2826-1.2387-5.2449-4.309-5.2793-8.2601-.0196-2.2022.13941-2.8874 1.0161-4.391 3.1139-5.3408 9.9601-6.1238 14.256-1.6304 3.1055 3.2485 3.2168 8.8467.23857 11.996-2.2972 2.4291-7.0418 3.489-10.231 2.2856z" style="fill:#ccc;stroke-opacity:0"/><path d="m-291.5 206.03c-.2147-.11948.72706-1.9918 1.8086-4.3379 7.2775-15.787 9.0798-33.479 4.7053-46.398-.55657-1.6437-2.0506-4.7202-3.2633-6.5894-1.2173-1.8762-2.0335-3.0881-1.8432-3.6463.80561-.4224 2.5658.68773 8.1145 4.1596 6.0167 3.7646 7.3539 5.2399 9.4045 8.4718 1.8306 2.8852 2.2136 3.8575.14038 6.7914-1.993 2.8204-2.3281 4.5851-2.3174 6.9454.009 2.1081.88768 4.1314 2.8343 6.5308 1.2153 1.4979 1.3563 1.8822 1.2142 3.3078-.19311 1.9368-2.9507 7.5767-5.4477 11.142-2.1056 3.0063-7.8943 8.9506-11.044 11.279-2.0897 1.5447-3.5886 2.7438-4.3064 2.3443z" style="fill:#ccc;stroke-opacity:0"/></g><g transform="matrix(-.21897 -.97573 .97573 -.21897 -683.1 -226.28)" style="fill:#ccc"><path d="m-268.81 179c-3.2804-1.2238-5.23-4.2877-5.2451-8.2428-.009-2.2043.15371-2.8911 1.0388-4.4005 3.1437-5.3615 10.002-6.1789 14.28-1.702 3.0933 3.2366 3.1774 8.84.18015 12.007-2.3118 2.4428-7.0672 3.5272-10.254 2.3382z" style="fill:#ccc;stroke-opacity:0"/><path d="m-291.5 206.03c-.2147-.11948.72706-1.9918 1.8086-4.3379 7.2775-15.787 9.0798-33.479 4.7053-46.398-.55657-1.6437-2.0506-4.7202-3.2633-6.5894-1.2173-1.8762-2.0335-3.0881-1.8432-3.6463.80561-.4224 2.5658.68773 8.1145 4.1596 6.0167 3.7646 7.3539 5.2399 9.4045 8.4718 1.8306 2.8852 2.2136 3.8575.14038 6.7914-1.993 2.8204-2.3281 4.5851-2.3174 6.9454.009 2.1081.88768 4.1314 2.8343 6.5308 1.2153 1.4979 1.3563 1.8822 1.2142 3.3078-.19311 1.9368-2.9507 7.5767-5.4477 11.142-2.1056 3.0063-7.8943 8.9506-11.044 11.279-2.0897 1.5447-3.5886 2.7438-4.3064 2.3443z" style="fill:#ccc;stroke-opacity:0"/></g><g transform="matrix(-.9014 -.43299 .43299 -.9014 -799.19 71.814)"><path d="m-268.74 179.13c-3.2905-1.2474-5.2557-4.3442-5.2872-8.3316-.0178-2.2223.142-2.914 1.0222-4.4321 3.1264-5.3922 9.9916-6.1879 14.295-1.6569 3.1114 3.2758 3.2187 8.9251.23004 12.106-2.3052 2.4532-7.0634 3.5267-10.26 2.3148z" style="fill:#0071bc;stroke-opacity:0"/><path d="m-291.5 206.03c-.2147-.11948.72706-1.9918 1.8086-4.3379 7.2775-15.787 9.0798-33.479 4.7053-46.398-.55657-1.6437-2.0506-4.7202-3.2633-6.5894-1.2173-1.8762-2.0335-3.0881-1.8432-3.6463.80561-.4224 2.5658.68773 8.1145 4.1596 6.0167 3.7646 7.3539 5.2399 9.4045 8.4718 1.8306 2.8852 2.2136 3.8575.14038 6.7914-1.993 2.8204-2.3281 4.5851-2.3174 6.9454.009 2.1081.88768 4.1314 2.8343 6.5308 1.2153 1.4979 1.3563 1.8822 1.2142 3.3078-.19311 1.9368-2.9507 7.5767-5.4477 11.142-2.1056 3.0063-7.8943 8.9506-11.044 11.279-2.0897 1.5447-3.5886 2.7438-4.3064 2.3443z" style="fill:#0071bc;stroke-opacity:0"/></g><g transform="matrix(-.90546 .42443 -.42443 -.90546 -641.85 345.17)" style="fill:#f00"><path d="m-268.76 178.93c-3.2734-1.2221-5.2213-4.2749-5.2405-8.2131-.0111-2.1949.15029-2.8786 1.0315-4.3806 3.1302-5.3354 9.9701-6.1421 14.243-1.6798 3.0889 3.2261 3.1786 8.8056.19226 11.956-2.3034 2.43-7.0457 3.5047-10.226 2.3174z" style="fill:#f00;stroke-opacity:0"/><path d="m-291.5 206.03c-.2147-.11948.72706-1.9918 1.8086-4.3379 7.2775-15.787 9.0798-33.479 4.7053-46.398-.55657-1.6437-2.0506-4.7202-3.2633-6.5894-1.2173-1.8762-2.0335-3.0881-1.8432-3.6463.80561-.4224 2.5658.68773 8.1145 4.1596 6.0167 3.7646 7.3539 5.2399 9.4045 8.4718 1.8306 2.8852 2.2136 3.8575.14038 6.7914-1.993 2.8204-2.3281 4.5851-2.3174 6.9454.009 2.1081.88768 4.1314 2.8343 6.5308 1.2153 1.4979 1.3563 1.8822 1.2142 3.3078-.19311 1.9368-2.9507 7.5767-5.4477 11.142-2.1056 3.0063-7.8943 8.9506-11.044 11.279-2.0897 1.5447-3.5886 2.7438-4.3064 2.3443z" style="fill:#f00;stroke-opacity:0"/></g><g transform="matrix(-.23835 .97118 -.97118 -.23835 -328.53 394.92)" style="fill:#f00"><path d="m-268.9 179c-3.3039-1.2441-5.271-4.349-5.2922-8.3532-.0125-2.2317.15031-2.9268 1.0389-4.4536 3.1562-5.4234 10.058-6.2404 14.372-1.7014 3.1186 3.2816 3.2118 8.9547.19966 12.157-2.3233 2.4696-7.1084 3.5602-10.318 2.3516z" style="fill:#f00;stroke-opacity:0"/><path d="m-291.5 206.03c-.2147-.11948.72706-1.9918 1.8086-4.3379 7.2775-15.787 9.0798-33.479 4.7053-46.398-.55657-1.6437-2.0506-4.7202-3.2633-6.5894-1.2173-1.8762-2.0335-3.0881-1.8432-3.6463.80561-.4224 2.5658.68773 8.1145 4.1596 6.0167 3.7646 7.3539 5.2399 9.4045 8.4718 1.8306 2.8852 2.2136 3.8575.14038 6.7914-1.993 2.8204-2.3281 4.5851-2.3174 6.9454.009 2.1081.88768 4.1314 2.8343 6.5308 1.2153 1.4979 1.3563 1.8822 1.2142 3.3078-.19311 1.9368-2.9507 7.5767-5.4477 11.142-2.1056 3.0063-7.8943 8.9506-11.044 11.279-2.0897 1.5447-3.5886 2.7438-4.3064 2.3443z" style="fill:#f00;stroke-opacity:0"/></g><g transform="matrix(.62687 .77912 -.77912 .62687 -90.416 174.6)" style="fill:#f00"><path d="m-268.82 179c-3.277-1.2303-5.2325-4.2892-5.2609-8.2293-.0164-2.196.1436-2.8796 1.0215-4.3804 3.1184-5.3307 9.958-6.1218 14.242-1.6474 3.0971 3.2348 3.1999 8.8174.22026 11.962-2.2982 2.4258-7.0391 3.49-10.223 2.2947z" style="fill:#f00;stroke-opacity:0"/><path d="m-291.5 206.03c-.2147-.11948.72706-1.9918 1.8086-4.3379 7.2775-15.787 9.0798-33.479 4.7053-46.398-.55657-1.6437-2.0506-4.7202-3.2633-6.5894-1.2173-1.8762-2.0335-3.0881-1.8432-3.6463.80561-.4224 2.5658.68773 8.1145 4.1596 6.0167 3.7646 7.3539 5.2399 9.4045 8.4718 1.8306 2.8852 2.2136 3.8575.14038 6.7914-1.993 2.8204-2.3281 4.5851-2.3174 6.9454.009 2.1081.88768 4.1314 2.8343 6.5308 1.2153 1.4979 1.3563 1.8822 1.2142 3.3078-.19311 1.9368-2.9507 7.5767-5.4477 11.142-2.1056 3.0063-7.8943 8.9506-11.044 11.279-2.0897 1.5447-3.5886 2.7438-4.3064 2.3443z" style="fill:#f00;stroke-opacity:0"/></g></g><g transform="translate(43.357 56.875)"><path d="m-484.56-165.02c.65171 10.795-1.7337 23.05-6.9375 34.338-1.0815 2.3461-2.0233 4.2184-1.8086 4.3379.71777.39944 2.2169-.79903 4.3066-2.3438 2.3853-1.7632 6.2769-5.5976 8.9434-8.6621a40.406 40.406 0 0 0 .77148-7.8106 40.406 40.406 0 0 0-5.2754-19.859z" style="fill:#4d9cd0;stroke-opacity:0"/><path d="m-510.04-184.35c8.2922 6.2772 15.804 15.452 21.037 26.047 1.1441 2.3162 2.0084 4.2246 2.2363 4.1328.76194-.30691.77174-2.226.88476-4.8223.0963-2.2121-.18139-5.798-.61914-9.1426a40.406 40.406 0 0 0-23.539-16.215z" style="fill:#dbdbdb;stroke-opacity:0"/><path d="m-519.69-185.57a40.406 40.406 0 0 0-24.23 8.1211c10.335-2.9265 22.704-3.2507 34.75-.66796 2.526.54155 4.5593 1.052 4.6289.8164.23258-.78781-1.2656-1.9887-3.2305-3.6894-1.314-1.1374-3.4458-2.6227-5.6973-4.0488a40.406 40.406 0 0 0-6.2207-.53125z" style="fill:#dbdbdb;stroke-opacity:0"/><path d="m-534.6-178.36c-.88799.006-2.2152.28706-3.8105.5918-2.0264.38708-5.1415 1.3664-8.1094 2.4648a40.406 40.406 0 0 0-13.57 30.141 40.406 40.406 0 0 0 .1582 3.3281c3.3871-11.648 11.698-23.783 22.908-33.055 1.9907-1.6465 3.6516-2.9263 3.5098-3.127-.17777-.25156-.55314-.3471-1.0859-.34375z" style="fill:#4d9cd0;stroke-opacity:0"/><path d="m-551.65-155.43c-.81945-.057-1.6678 1.6655-2.9043 3.9512-1.6401 3.0316-3.9381 9.4592-4.8965 13.424a40.406 40.406 0 0 0 21.178 28.732c-8.108-10.041-13.07-25.467-13.172-41.412-.0165-2.5833.04-4.6782-.20507-4.6953z" style="fill:#ff4d4d;stroke-opacity:0"/><path d="m-545.45-127.61c-.55901.60188.24984 2.3425 1.252 4.7402 1.5103 3.6135 5.9026 10.653 8.3203 13.414.58583.66912 1.2639 1.3681 1.9707 2.0644a40.406 40.406 0 0 0 14.215 2.6348 40.406 40.406 0 0 0 18.139-4.3125c-12.821-.11086-27.765-5.9159-40.113-15.752-2.0207-1.6095-3.616-2.9691-3.7832-2.7891z" style="fill:#ff4d4d;stroke-opacity:0"/><path d="m-480.69-134.79c-8.0825 8.9784-20.746 16.281-34.773 19.797-2.5058.62805-4.5552 1.0684-4.5137 1.3106.13874.80962 2.0138 1.2249 4.5274 1.8848 3.7881.9944 12.047 1.7772 15.709 1.5332.12092-.008.25536-.0254.37891-.0351a40.406 40.406 0 0 0 18.672-24.49z" style="fill:#ff4d4d;stroke-opacity:0"/></g></g></g></g></svg>
