<?xml version="1.0" standalone="no"?>
<!DOCTYPE svg PUBLIC "-//W3C//DTD SVG 20010904//EN"
 "http://www.w3.org/TR/2001/REC-SVG-20010904/DTD/svg10.dtd">
<svg version="1.0" xmlns="http://www.w3.org/2000/svg"
 width="300.000000pt" height="300.000000pt" viewBox="0 0 300.000000 300.000000"
 preserveAspectRatio="xMidYMid meet">
<metadata>
Created by potrace 1.11, written by Peter Selinger 2001-2013
</metadata>
<g transform="translate(0.000000,300.000000) scale(0.100000,-0.100000)"
fill="#000000" stroke="none">
<path d="M1715 2050 c-3 -5 -1 -10 4 -10 6 0 11 5 11 10 0 6 -2 10 -4 10 -3 0
-8 -4 -11 -10z"/>
<path d="M1750 2046 c0 -2 7 -6 15 -10 8 -3 15 -1 15 4 0 6 -7 10 -15 10 -8 0
-15 -2 -15 -4z"/>
<path d="M2545 2033 c4 -9 -3 -13 -23 -13 -31 0 -61 -24 -43 -34 5 -3 16 -4
24 0 23 8 127 10 127 2 0 -5 5 -8 10 -8 6 0 9 5 8 12 -4 16 -60 47 -73 40 -5
-3 4 -12 20 -19 l30 -14 -29 6 c-17 4 -36 14 -44 23 -7 9 -11 11 -7 5z"/>
<path d="M2361 2017 c-5 -5 -27 -13 -48 -17 -21 -4 -47 -11 -57 -15 -14 -6
-17 -5 -12 3 4 7 3 12 -2 12 -5 0 -9 -11 -9 -24 0 -22 2 -23 30 -15 16 5 34 6
39 3 5 -3 7 0 6 6 -3 11 16 19 49 22 7 1 10 5 7 10 -3 4 -1 8 5 8 5 0 12 -4
16 -9 6 -11 50 -5 74 9 12 7 9 10 -14 11 -16 0 -40 2 -52 3 -12 1 -27 -2 -32
-7z"/>
<path d="M2060 2010 c0 -15 33 -28 65 -25 17 2 24 1 18 -2 -7 -2 -13 -12 -13
-20 0 -12 -3 -13 -14 -4 -8 6 -27 14 -42 16 -16 2 -46 7 -66 9 -22 4 -38 2
-38 -4 0 -5 -6 -7 -13 -4 -7 2 -21 -2 -32 -10 -14 -10 -16 -14 -5 -13 26 2 90
-15 90 -24 0 -5 -3 -9 -7 -10 -5 0 -25 -1 -46 -3 -21 -2 -43 -8 -49 -14 -9 -9
2 -12 46 -12 48 0 57 -3 52 -15 -7 -20 11 -19 22 1 6 11 9 6 10 -20 l1 -36
-62 1 c-88 1 -155 -3 -134 -8 14 -4 17 -16 17 -78 0 -66 -2 -74 -17 -68 -16 5
-16 4 0 -9 13 -9 19 -28 20 -58 l2 -45 -41 -3 -41 -3 1 58 c1 32 5 61 11 65 6
5 5 8 -3 8 -7 0 -11 4 -7 10 3 5 13 7 23 4 10 -4 13 -2 7 3 -18 14 -30 47 -30
78 0 23 5 30 18 29 14 -2 15 1 6 12 -6 7 -14 13 -17 12 -4 0 -15 0 -26 1 -14
1 -16 4 -8 14 9 10 4 13 -20 15 l-30 2 26 -31 c14 -17 27 -38 27 -47 1 -9 3
-37 5 -62 5 -81 -43 -152 -114 -166 -21 -4 -31 -2 -35 11 -5 11 -3 14 5 9 8
-5 9 -2 5 9 -4 12 2 22 19 33 29 20 56 67 52 92 -2 9 3 16 10 14 6 -1 12 2 12
8 0 5 -7 10 -17 10 -9 0 -13 3 -10 6 11 11 -27 65 -49 70 -23 6 -33 27 -26 57
3 14 10 16 43 11 40 -7 49 2 27 25 -11 11 -8 12 15 7 20 -5 27 -3 27 9 0 12
-14 14 -82 11 -46 -1 -92 -7 -102 -11 -15 -7 -17 -5 -11 6 7 12 6 12 -7 1 -13
-10 -17 -10 -20 0 -4 10 -38 13 -136 13 -73 0 -132 -4 -132 -8 0 -5 -14 -6
-30 -2 -19 4 -36 2 -45 -5 -12 -10 -15 -10 -15 1 0 11 -2 11 -10 -1 -6 -10
-26 -15 -64 -15 -30 0 -52 -4 -49 -9 3 -5 0 -6 -8 -4 -8 3 -13 11 -12 17 3 11
-17 16 -47 12 -71 -10 -101 -8 -96 6 4 9 1 13 -6 10 -7 -2 -12 -10 -11 -16 2
-6 -7 -11 -20 -11 -144 -1 -342 -11 -383 -19 -64 -12 -183 -13 -163 -1 10 7 5
13 -23 25 -45 18 -62 19 -52 3 5 -8 2 -9 -9 -5 -12 5 -19 -1 -23 -18 -3 -14
-10 -22 -15 -19 -15 9 -10 -23 6 -36 18 -15 20 -34 3 -24 -8 5 -9 2 -5 -9 4
-11 1 -17 -8 -17 -7 0 -17 -5 -20 -10 -4 -6 -3 -10 2 -9 18 3 30 -2 31 -13 7
-78 11 -100 22 -113 9 -10 9 -15 1 -16 -26 -3 -30 -4 -38 -13 -4 -5 3 -6 19
-2 26 6 27 5 22 -24 -5 -22 -2 -31 10 -36 9 -3 16 -13 16 -21 0 -8 -4 -11 -10
-8 -5 3 -10 -1 -10 -9 0 -10 6 -13 15 -10 8 4 15 2 16 -2 0 -5 2 -17 4 -26 2
-10 -2 -18 -8 -18 -7 0 -21 -8 -32 -16 -19 -16 -19 -16 5 -9 14 4 30 10 36 12
18 7 55 -62 41 -76 -9 -9 -9 -14 0 -19 29 -18 -10 -68 -43 -55 -6 2 -14 -3
-17 -11 -8 -20 -5 -20 38 -2 37 16 54 10 27 -10 -16 -12 -15 -13 4 -8 15 4 23
-1 32 -21 16 -35 15 -65 -3 -65 -20 0 -65 -22 -65 -31 0 -5 7 -6 17 -2 13 5
15 2 10 -16 -3 -13 -3 -20 0 -17 3 3 13 1 22 -4 11 -5 23 -5 32 2 11 8 10 9
-4 4 -11 -3 -16 -2 -12 4 7 12 57 2 67 -14 4 -6 4 -22 1 -35 -3 -14 -2 -22 4
-18 5 3 17 -3 26 -13 11 -13 13 -22 6 -26 -6 -4 1 -14 18 -25 30 -20 63 -25
63 -10 0 6 -8 8 -18 6 -22 -4 -58 20 -43 30 6 3 20 1 31 -5 11 -6 26 -8 32 -4
6 4 41 7 77 7 37 0 78 5 92 13 15 7 29 10 33 7 3 -4 6 -1 6 6 0 7 4 10 9 7 5
-3 14 1 21 9 16 19 30 19 30 0 0 -8 4 -15 9 -15 5 0 7 9 4 20 -5 21 4 25 31
14 9 -3 13 -11 10 -16 -4 -6 -10 -5 -16 3 -7 10 -8 8 -3 -8 4 -15 1 -23 -12
-26 -10 -3 -3 -5 15 -6 17 0 32 2 33 7 0 4 2 17 3 29 1 12 -1 20 -5 17 -4 -2
-10 0 -14 6 -3 6 4 10 17 10 13 0 30 6 37 13 11 10 13 7 9 -15 -3 -15 -1 -25
3 -22 12 7 11 -10 -1 -22 -6 -6 -3 -10 10 -11 18 -2 25 8 21 30 -1 4 6 10 14
13 11 5 13 10 5 19 -8 9 -6 14 7 19 10 4 19 2 21 -3 2 -6 8 -9 12 -6 5 3 4 19
-2 35 -9 27 -14 30 -54 30 -31 0 -44 4 -44 14 0 32 13 46 41 46 33 0 34 6 10
74 l-17 49 -32 -109 c-18 -60 -34 -116 -36 -124 -2 -9 -17 -16 -39 -18 -35 -3
-37 -2 -37 28 0 17 3 29 8 27 4 -3 8 5 8 16 2 22 6 38 16 67 3 8 16 44 28 80
43 126 37 118 85 118 l44 0 27 -76 c58 -166 83 -227 94 -230 7 -3 11 6 9 24
-1 16 -1 53 -1 83 2 48 4 53 22 48 11 -3 18 -1 14 4 -3 5 4 9 14 9 26 0 28
-10 27 -102 0 -46 3 -74 9 -71 5 4 7 -1 3 -10 -3 -9 -1 -18 6 -20 8 -3 5 -10
-8 -20 -11 -9 -21 -11 -23 -6 -2 5 -8 9 -13 9 -4 0 -6 -7 -2 -16 3 -8 12 -13
19 -10 7 3 16 1 20 -5 4 -6 12 -5 22 3 12 10 14 10 8 1 -4 -8 -2 -13 4 -13 7
0 9 12 6 34 -5 29 -3 34 12 31 9 -2 19 -4 22 -4 3 -1 -2 -6 -10 -11 -13 -8
-12 -10 3 -10 10 0 16 -4 13 -8 -2 -4 -1 -14 5 -22 6 -11 9 -11 10 -2 1 6 2
18 3 25 1 6 -3 15 -9 19 -6 5 -2 8 8 8 10 0 17 3 15 8 -3 7 -67 118 -99 170
-16 27 -16 27 17 29 46 4 74 -36 75 -110 2 -78 16 -91 16 -14 0 53 4 71 29
108 41 63 51 80 70 116 14 29 21 33 54 31 l39 -1 -33 -51 c-18 -28 -35 -58
-39 -66 -4 -8 -29 -51 -56 -95 -39 -64 -47 -83 -38 -94 9 -11 9 -13 0 -8 -6 4
-14 3 -17 -2 -4 -5 -1 -13 5 -17 8 -4 7 -9 -2 -15 -10 -6 -11 -9 -1 -9 6 0 12
-4 12 -10 0 -5 -8 -7 -17 -4 -10 3 -6 -2 10 -11 23 -13 30 -14 41 -3 16 17 9
43 -8 29 -9 -8 -13 -6 -13 4 0 8 7 15 14 15 8 0 11 5 7 12 -4 7 -3 8 4 4 7 -4
12 -14 12 -22 0 -10 6 -8 21 7 17 17 20 33 20 102 0 72 3 87 30 134 17 29 35
55 40 59 7 4 10 -35 9 -108 -2 -172 -1 -188 11 -188 5 0 7 5 4 10 -3 6 -1 10
4 10 6 0 10 3 9 8 -3 15 34 122 43 122 5 0 9 7 9 16 0 8 -4 13 -10 9 -5 -3
-17 6 -26 20 -18 28 -13 88 11 111 17 17 28 18 20 2 -4 -7 1 -4 9 6 12 14 30
20 71 21 l56 2 -4 -31 c-3 -28 -7 -31 -39 -31 -42 0 -69 -20 -65 -46 6 -35 24
-45 90 -48 12 -1 17 -9 17 -31 0 -27 -3 -29 -30 -26 -16 2 -32 1 -36 -3 -3 -3
-10 -7 -15 -7 -5 -1 -13 -2 -19 -3 -5 0 -7 -9 -4 -18 4 -12 3 -14 -3 -6 -17
24 -36 18 -40 -12 -3 -24 -2 -28 8 -18 17 17 30 17 26 1 -1 -9 16 -13 61 -13
47 0 62 -3 62 -15 0 -11 3 -11 12 -2 9 9 9 17 0 34 -7 14 -11 64 -9 133 2 96
4 112 22 126 11 9 28 16 37 16 16 0 18 -14 17 -144 0 -79 -3 -142 -7 -139 -5
3 -14 0 -22 -6 -12 -8 -12 -9 2 -4 10 3 21 -1 25 -8 10 -18 75 -26 95 -12 10
8 14 24 11 54 -2 29 1 42 9 42 10 0 10 2 -1 9 -8 5 -9 11 -3 15 6 3 18 -1 26
-10 9 -8 16 -11 16 -5 0 6 -9 15 -20 21 -11 6 -18 15 -15 21 4 5 2 9 -3 9 -7
0 -8 27 -3 73 1 4 17 7 37 7 21 0 33 -4 29 -10 -3 -5 -2 -10 2 -10 5 0 7 -31
6 -70 -3 -64 -1 -70 17 -70 11 0 20 -4 20 -10 0 -5 -3 -9 -7 -9 -24 4 -33 -4
-33 -25 0 -43 10 -56 45 -56 19 0 36 -4 40 -10 3 -5 -8 -7 -29 -5 -23 3 -40
-1 -50 -11 -18 -18 -21 -34 -5 -34 5 0 7 5 4 10 -3 5 -1 10 4 10 6 0 11 -5 11
-11 0 -8 5 -7 15 1 13 11 14 10 9 -4 -3 -9 -13 -16 -22 -16 -8 0 -13 -3 -9 -6
3 -3 62 -8 130 -11 101 -4 124 -2 124 9 0 8 -11 15 -24 16 -13 1 -23 -4 -23
-11 0 -8 -3 -8 -9 2 -6 9 -20 12 -40 9 -17 -2 -31 -1 -31 4 0 4 18 8 40 8 26
0 43 6 50 18 10 15 11 15 6 0 -5 -17 11 -28 32 -21 9 4 10 9 3 17 -7 8 -4 12
12 13 12 0 16 -1 10 -4 -10 -3 -10 -10 -2 -25 8 -15 8 -22 -1 -28 -8 -5 -5 -9
9 -13 12 -3 21 -1 21 4 0 5 5 9 10 9 6 0 10 -7 10 -16 0 -8 5 -12 10 -9 6 4 7
12 3 18 -4 7 -6 20 -5 29 2 12 -2 15 -18 11 -17 -4 -18 -8 -8 -14 9 -6 9 -9 1
-9 -18 0 -25 18 -11 27 19 11 48 14 48 5 0 -5 7 -9 15 -9 8 0 15 7 15 16 0 14
2 14 10 1 9 -13 10 -13 11 0 0 8 6 -1 13 -20 11 -30 17 -35 42 -33 16 2 41 4
56 5 15 1 26 6 25 12 -1 5 6 12 17 14 13 3 16 0 11 -10 -3 -7 2 -3 13 10 11
12 19 30 17 40 -2 9 -4 19 -4 22 -1 3 -6 -2 -11 -10 -6 -9 -10 -10 -10 -3 0
19 17 24 30 8 9 -11 17 -12 30 -5 11 6 21 6 24 1 3 -5 -6 -12 -20 -15 -15 -4
-24 -10 -20 -13 3 -3 1 -11 -4 -18 -7 -8 -5 -12 5 -12 7 0 14 3 13 6 -2 24 25
46 54 42 4 0 5 6 1 15 -4 11 -8 12 -13 4 -6 -9 -9 -9 -15 -1 -3 7 -16 9 -28 6
-15 -4 -12 0 8 12 17 9 32 17 35 16 3 -1 11 5 18 13 12 13 10 14 -10 9 -31 -8
-61 21 -38 35 8 5 12 12 8 15 -3 3 -13 -2 -22 -11 -15 -14 -15 -17 -2 -28 11
-8 13 -15 6 -26 -5 -8 -10 -10 -10 -4 0 6 -7 11 -15 11 -9 0 -14 -6 -11 -13 3
-8 0 -11 -10 -7 -27 10 -12 30 20 24 5 -1 6 5 2 14 -3 9 -6 21 -6 27 0 6 -12
3 -26 -7 -29 -19 -66 -13 -44 8 10 9 14 9 17 -1 4 -10 8 -10 17 2 6 9 21 17
33 19 12 2 25 6 29 9 3 4 12 4 20 1 8 -3 17 2 20 11 3 9 10 14 14 11 5 -3 5 5
2 17 -5 19 -7 20 -10 6 -2 -10 -8 -18 -13 -18 -6 0 -7 5 -4 10 3 6 -1 10 -10
10 -9 0 -13 4 -10 10 3 5 0 7 -9 4 -8 -3 -23 0 -33 6 -16 10 -16 11 0 6 9 -3
17 -1 17 5 0 6 4 8 8 5 5 -3 21 1 36 9 14 8 24 11 22 6 -3 -4 1 -8 9 -8 8 0
12 4 8 9 -3 6 15 7 43 4 42 -5 45 -5 24 5 -23 10 -43 14 -110 19 -23 1 -23 2
-5 9 11 5 26 6 33 3 7 -2 12 2 10 9 -3 15 44 18 75 5 12 -6 17 -4 17 8 0 18
-17 27 -55 30 -29 1 -33 12 -7 19 12 3 10 5 -8 7 -14 1 -28 2 -32 1 -5 0 -8 6
-8 14 0 9 9 15 25 15 14 0 25 -4 25 -10 0 -5 8 -10 18 -10 14 0 15 2 2 10 -8
5 -10 10 -4 10 6 0 14 -3 17 -7 12 -12 90 -15 82 -4 -3 6 -19 11 -36 11 -26 0
-43 18 -19 21 6 1 14 2 19 3 22 3 22 16 0 17 l-24 0 23 10 c13 5 27 7 31 4 4
-2 8 2 8 9 0 8 -10 11 -26 9 -21 -4 -23 -2 -11 6 12 9 10 11 -10 10 -14 0 -37
3 -52 7 -24 5 -28 3 -28 -15 0 -11 -5 -21 -11 -21 -5 0 -7 5 -4 10 3 6 -1 10
-9 10 -9 0 -16 8 -15 18 0 10 3 12 6 5 2 -7 9 -13 14 -13 6 0 7 6 3 13 -4 6
-4 9 0 6 4 -4 22 -3 41 1 21 5 38 3 46 -4 9 -8 10 -8 5 2 -4 6 -2 12 3 12 6 0
11 -4 11 -8 0 -4 9 -8 21 -8 20 0 19 2 -5 21 -26 20 -37 43 -14 29 6 -4 8 -3
4 4 -3 6 -18 9 -32 6 -18 -3 -25 -1 -22 8 3 7 9 13 14 13 14 1 50 24 37 25 -6
0 -15 -5 -18 -10 -4 -6 -10 -8 -15 -5 -4 3 -13 -2 -20 -10 -6 -7 -17 -12 -24
-9 -8 3 -20 -2 -29 -10 -17 -18 -32 -21 -22 -6 9 14 -8 12 -25 -2 -12 -11 -12
-10 -2 3 7 9 31 19 53 23 23 4 51 14 63 22 20 15 20 16 -16 12 -20 -2 -35 -1
-32 3 2 4 -6 10 -18 12 -23 4 17 9 95 11 44 1 51 16 7 16 -16 0 -30 5 -30 12
0 6 -10 3 -22 -8 -12 -10 -18 -14 -15 -7 8 13 -28 29 -52 24 -12 -2 -13 0 -3
12 10 12 9 16 -5 22 -10 5 -25 7 -33 6 -13 -2 -13 0 -1 8 9 6 22 6 32 1 9 -5
19 -6 23 -3 3 3 -12 14 -34 24 -22 10 -40 23 -40 29 0 5 -4 10 -10 10 -5 0 -7
-7 -3 -16 4 -12 2 -15 -8 -12 -8 3 -13 13 -11 23 2 11 -1 15 -9 9 -9 -5 -10
-2 -6 10 5 12 3 15 -6 9 -22 -14 -39 -12 -33 3 3 8 2 13 -3 10 -4 -3 -22 -1
-39 3 -22 7 -32 6 -36 -2 -3 -9 -5 -8 -5 1 -1 6 -8 12 -17 12 -8 0 -13 -4 -10
-9 3 -5 -1 -12 -10 -15 -9 -3 -12 -11 -8 -18 5 -10 4 -10 -7 0 -12 11 -12 14
1 22 8 5 13 10 10 11 -54 8 -69 7 -74 -8 -6 -14 -9 -14 -28 3 -14 12 -18 14
-13 4 5 -9 -1 -7 -15 5 -14 12 -24 16 -27 9 -4 -13 -47 -6 -78 13 -19 11 -19
12 10 35 l29 23 -39 7 c-58 10 -95 9 -95 -2z m290 -100 c0 -5 -2 -10 -4 -10
-3 0 -8 5 -11 10 -3 6 -1 10 4 10 6 0 11 -4 11 -10z m-1595 -30 c4 -6 3 -10
-2 -9 -21 4 -32 -2 -27 -15 3 -8 -3 -19 -15 -25 -16 -9 -22 -8 -31 6 -9 14
-10 14 -7 2 4 -12 -2 -16 -29 -15 -19 1 -34 5 -34 9 0 4 -8 3 -18 -2 -23 -12
-62 -10 -62 2 0 6 10 19 23 30 l22 19 -22 -6 c-13 -4 -23 -3 -23 2 0 14 217
16 225 2z m225 -20 c0 -23 -6 -33 -25 -40 -56 -21 -74 -126 -30 -178 14 -17
25 -36 25 -43 0 -11 3 -11 10 1 5 8 10 11 11 5 0 -5 2 -20 3 -32 2 -18 -2 -21
-25 -18 -16 2 -37 9 -48 14 -28 15 -64 69 -55 82 4 8 3 9 -4 5 -7 -4 -12 -2
-12 5 0 6 8 9 20 6 11 -3 18 -1 14 4 -3 5 -11 9 -19 9 -17 0 -22 17 -19 62 6
80 64 140 142 147 7 1 12 -11 12 -29z m71 16 c19 -8 43 -23 53 -35 24 -26 47
-94 36 -105 -5 -5 -5 -17 1 -28 27 -50 -62 -158 -130 -158 -28 0 -16 38 25 76
19 18 34 41 34 53 0 11 6 21 13 22 10 0 10 2 0 6 -22 8 -14 21 10 17 21 -4 21
-4 1 6 -11 6 -25 25 -31 41 -6 16 -25 37 -41 46 -23 13 -30 23 -27 43 1 14 3
26 4 28 2 5 21 1 52 -12z m189 -79 c0 -59 -4 -97 -12 -105 -9 -9 -9 -12 0 -12
8 0 12 -21 12 -65 l0 -65 -36 0 c-29 0 -35 3 -30 16 3 8 2 13 -2 10 -12 -7
-10 258 3 266 6 5 6 8 -2 8 -6 0 -11 9 -10 20 1 16 8 20 39 20 l38 0 0 -93z
m139 79 c57 -30 69 -116 23 -167 -42 -47 -152 -60 -152 -18 0 10 6 19 13 19 8
0 7 4 -3 10 -11 7 -4 10 27 10 31 0 45 5 53 19 25 48 2 81 -58 81 -25 0 -29 4
-30 30 -1 29 0 30 49 30 28 0 62 -6 78 -14z m221 2 c0 -5 0 -17 0 -28 0 -12
-12 -26 -30 -35 -62 -32 -62 -151 0 -197 27 -19 45 -58 20 -43 -5 3 -10 -1
-10 -9 0 -19 0 -19 -41 -2 -104 44 -123 230 -31 293 44 30 92 40 92 21z m711
-158 c32 -91 59 -166 59 -167 0 -2 -20 -3 -44 -3 -40 0 -44 2 -52 33 -9 30
-13 32 -57 35 -36 2 -47 7 -47 20 0 28 16 45 44 45 31 0 31 -2 10 68 l-17 54
-19 -65 c-11 -36 -25 -84 -31 -108 -7 -24 -15 -41 -18 -38 -3 3 -5 -4 -5 -17
1 -18 -5 -22 -37 -25 -37 -3 -38 -3 -34 30 2 18 25 93 51 167 25 74 46 136 46
138 0 2 21 3 46 1 l46 -3 59 -165z m-1554 120 c1 -14 -4 -20 -19 -20 -20 0
-21 1 -3 20 10 11 19 20 19 20 1 0 2 -9 3 -20z m-182 -49 c-4 10 1 15 15 15
11 0 20 -6 20 -13 0 -7 -6 -13 -12 -13 -8 0 -9 -3 -3 -8 41 -30 -28 -141 -81
-130 -25 4 -26 53 -2 74 10 10 18 28 18 41 0 12 6 23 13 24 9 0 9 2 -1 6 -6 2
-9 9 -6 15 3 5 14 2 25 -8 15 -13 18 -14 14 -3z m172 7 c-8 -5 -7 -8 5 -8 15
0 16 -4 8 -25 -5 -14 -6 -25 -1 -25 5 0 8 -22 7 -50 0 -27 -4 -50 -8 -50 -5 0
-8 -4 -8 -9 0 -4 11 -7 25 -6 25 3 25 3 25 -76 l0 -79 -30 0 c-27 0 -30 3 -31
33 -1 17 -1 35 -1 38 1 3 -39 6 -89 7 -89 1 -89 1 -89 -24 0 -18 -4 -23 -12
-18 -9 5 -9 2 1 -9 7 -9 12 -17 10 -18 -2 0 -19 -3 -36 -5 l-33 -5 0 74 c0 51
4 76 13 79 6 3 56 4 110 3 88 -1 117 5 85 18 -8 3 -13 22 -12 48 1 37 4 44 20
42 18 -1 18 -1 2 11 -10 7 -18 25 -18 39 0 22 4 25 35 24 21 -1 30 -4 22 -9z
m1932 -179 c-19 -11 -24 -3 -8 14 8 9 16 11 18 5 2 -6 -3 -14 -10 -19z m71 11
c12 -8 9 -10 -12 -10 -15 0 -30 5 -33 10 -8 13 25 13 45 0z m-114 -69 c-4 -5
0 -12 6 -14 8 -4 9 -6 2 -6 -6 -1 -17 6 -24 14 -10 12 -9 15 4 15 10 0 15 -4
12 -9z m99 -31 c3 -5 -3 -10 -15 -10 -12 0 -18 5 -15 10 3 6 10 10 15 10 5 0
12 -4 15 -10z m-99 -52 c4 -6 3 -8 -4 -4 -6 3 -13 2 -17 -4 -3 -5 -12 -10 -18
-10 -7 0 -3 7 7 15 24 18 23 18 32 3z m-1970 -39 c8 -6 12 -14 10 -18 -2 -3 3
-12 11 -20 13 -12 14 -11 8 10 -7 22 -7 23 11 9 18 -14 18 -14 5 2 -7 10 -17
16 -21 13 -5 -3 -11 -1 -15 5 -8 12 15 13 35 0 9 -5 19 -5 26 1 10 8 11 -6 5
-53 -2 -12 -81 -9 -81 2 0 6 -5 10 -11 10 -5 0 -7 -4 -4 -10 4 -6 -24 -9 -73
-7 -73 2 -78 3 -74 22 3 11 7 14 10 7 6 -19 18 -14 19 7 1 14 -3 18 -14 14
-10 -4 -14 -2 -10 4 9 14 146 16 163 2z m522 -32 c46 -68 47 -77 6 -77 -21 0
-33 4 -29 10 3 6 1 10 -5 10 -6 0 -20 16 -32 35 -11 20 -23 34 -26 31 -2 -3 3
-17 12 -31 14 -21 15 -29 6 -41 -17 -20 -30 -8 -30 29 0 58 9 74 41 75 23 0
34 -7 57 -41z m542 33 c0 -5 -5 -10 -11 -10 -5 0 -7 5 -4 10 3 6 8 10 11 10 2
0 4 -4 4 -10z m147 -3 c6 -4 14 -3 17 2 8 12 125 11 132 -1 4 -5 11 -5 18 1 9
8 12 2 13 -23 1 -32 0 -32 -41 -32 -31 1 -40 5 -38 16 2 13 1 13 -10 0 -18
-22 -158 -23 -158 -2 0 9 6 12 16 8 8 -3 12 -2 9 4 -3 6 0 10 7 11 10 0 10 2
1 6 -7 2 -13 9 -13 14 0 10 28 8 47 -4z m280 -43 c-2 -30 1 -54 6 -54 4 0 5
-5 1 -12 -4 -7 -8 -26 -7 -42 0 -17 -11 -48 -24 -68 -12 -21 -23 -42 -23 -47
0 -5 -6 -14 -14 -20 -12 -10 -14 12 -13 142 l1 153 38 1 37 1 -2 -54z m176 6
c-15 -27 -33 -50 -39 -50 -6 0 -11 -6 -11 -12 0 -7 -3 -23 -7 -35 -5 -14 -3
-23 3 -23 6 0 11 7 11 15 0 8 8 15 18 15 14 0 15 2 2 10 -12 8 -10 10 10 10
14 0 32 -5 40 -10 12 -8 10 -10 -10 -10 -24 -1 -24 -2 -4 -10 12 -5 25 -13 28
-19 4 -6 14 -7 23 -4 15 6 16 5 3 -9 -13 -13 -16 -13 -25 -1 -8 11 -11 -9 -10
-74 l0 -88 -33 2 c-18 1 -30 -3 -27 -8 3 -5 0 -6 -8 -3 -10 3 -14 18 -13 42 1
31 -2 37 -19 37 -11 0 -18 4 -15 10 3 5 11 10 19 10 17 0 26 45 8 45 -9 0 -9
2 1 9 11 6 9 9 -6 13 -14 4 -24 -3 -36 -23 -10 -16 -15 -33 -12 -38 3 -5 -1
-12 -9 -15 -9 -3 -24 -21 -36 -40 -15 -26 -28 -35 -54 -38 -19 -2 -35 -1 -35
3 0 4 20 42 45 83 25 42 45 79 45 82 0 3 8 14 19 25 13 15 25 18 45 13 16 -4
26 -2 26 5 0 10 -21 16 -42 12 -5 0 -8 4 -8 10 0 6 8 8 19 4 11 -3 22 -1 26 4
3 7 0 8 -9 5 -21 -8 -20 10 1 44 24 39 43 52 75 52 l29 0 -28 -50z m261 19
c-6 -11 -24 -2 -24 11 0 5 7 7 15 4 8 -4 12 -10 9 -15z m-57 -11 c-3 -8 -6 -5
-6 6 -1 11 2 17 5 13 3 -3 4 -12 1 -19z m133 18 c0 -2 -9 -6 -20 -9 -11 -3
-20 -1 -20 4 0 5 9 9 20 9 11 0 20 -2 20 -4z m-306 -38 c-1 -13 -3 -31 -3 -41
-1 -14 -5 -16 -21 -7 -19 10 -18 30 3 58 15 19 24 14 21 -10z m265 7 c-3 -2
-14 -6 -25 -8 -10 -1 -25 -6 -31 -10 -9 -6 -11 -3 -7 7 4 10 18 16 37 16 17 0
28 -2 26 -5z m-2062 -93 c0 -39 -4 -71 -11 -75 -8 -6 -8 -10 2 -14 7 -3 12
-24 12 -54 l0 -49 -39 0 -40 0 0 59 c1 60 14 81 42 64 7 -4 5 1 -3 11 -8 11
-16 14 -18 7 -5 -16 -19 -13 -19 4 0 8 5 15 10 15 6 0 6 5 0 13 -8 10 -10 49
-4 79 0 3 16 6 34 6 l34 0 0 -66z m164 54 c21 -9 26 -115 6 -129 -9 -7 -9 -10
1 -14 7 -3 12 -24 12 -54 l0 -49 -39 0 -39 0 0 68 c1 73 6 92 19 71 7 -11 9
-11 9 -1 0 7 -6 15 -14 18 -9 3 -12 20 -11 52 2 26 3 48 4 48 3 3 38 -3 52
-10z m403 -37 c-34 -13 -50 -11 -29 5 11 8 26 11 34 8 12 -4 11 -7 -5 -13z
m1379 -26 c-7 -2 -19 -2 -25 0 -7 3 -2 5 12 5 14 0 19 -2 13 -5z m105 -29 c2
-1 -8 -1 -21 0 -15 0 -23 6 -20 14 4 10 9 10 22 0 9 -7 17 -13 19 -14z m-743
-73 c0 -17 -5 -27 -11 -24 -11 4 -7 53 5 53 3 0 6 -13 6 -29z m631 -48 c-9 -9
-57 -12 -51 -4 2 4 16 8 31 9 15 1 24 -1 20 -5z m-1599 -45 c-3 -7 -5 -2 -5
12 0 14 2 19 5 13 2 -7 2 -19 0 -25z m1599 -33 c1 -8 -1 -17 -5 -19 -4 -3 -8
7 -9 21 -2 27 10 25 14 -2z m56 18 c-6 -2 -10 -8 -7 -13 3 -4 -4 -6 -15 -3
-25 7 -16 23 13 22 12 0 16 -3 9 -6z m-89 -20 c-3 -8 -12 -12 -20 -9 -7 3 -16
-1 -20 -10 -5 -13 -7 -13 -14 -2 -13 20 -11 31 6 25 8 -4 17 -3 19 2 9 14 34
8 29 -6z m-428 -22 c-9 -16 -25 -3 -18 15 4 10 9 12 15 6 6 -6 7 -15 3 -21z
m-1421 5 c-10 -8 -21 -12 -24 -10 -5 6 21 24 34 24 6 0 1 -6 -10 -14z"/>
<path d="M614 1872 c3 -5 0 -13 -6 -15 -9 -4 -10 -6 -1 -6 17 -1 25 16 12 25
-7 4 -9 3 -5 -4z"/>
<path d="M860 1720 c0 -13 18 -22 24 -11 3 5 -1 11 -9 15 -8 3 -15 1 -15 -4z"/>
<path d="M1095 1761 c-3 -5 -1 -12 5 -16 5 -3 10 1 10 9 0 18 -6 21 -15 7z"/>
<path d="M1480 1720 c0 -13 18 -22 24 -11 3 5 -1 11 -9 15 -8 3 -15 1 -15 -4z"/>
<path d="M1468 1673 c7 -3 16 -2 19 1 4 3 -2 6 -13 5 -11 0 -14 -3 -6 -6z"/>
<path d="M730 1769 c0 -5 5 -7 10 -4 6 3 10 8 10 11 0 2 -4 4 -10 4 -5 0 -10
-5 -10 -11z"/>
<path d="M720 1629 c0 -5 5 -7 10 -4 6 3 10 8 10 11 0 2 -4 4 -10 4 -5 0 -10
-5 -10 -11z"/>
<path d="M1187 1349 c7 -7 15 -10 18 -7 3 3 -2 9 -12 12 -14 6 -15 5 -6 -5z"/>
<path d="M2012 1424 c10 -10 20 -15 24 -12 3 4 -5 12 -18 18 -22 12 -22 12 -6
-6z"/>
<path d="M1938 1423 c6 -3 10 -9 6 -14 -8 -14 2 -11 14 4 8 10 6 13 -11 14
-12 0 -16 -1 -9 -4z"/>
<path d="M1980 1426 c0 -2 8 -10 18 -17 15 -13 16 -12 3 4 -13 16 -21 21 -21
13z"/>
<path d="M1580 2000 c0 -5 5 -10 11 -10 5 0 7 5 4 10 -3 6 -8 10 -11 10 -2 0
-4 -4 -4 -10z"/>
<path d="M1417 1981 c5 -19 33 -19 33 1 0 5 -4 6 -10 3 -5 -3 -10 -1 -10 4 0
6 -4 11 -9 11 -5 0 -7 -9 -4 -19z"/>
<path d="M1738 1988 c8 -9 19 -15 27 -12 7 3 36 1 63 -4 38 -7 52 -6 56 3 3 9
-16 12 -66 13 -38 1 -75 5 -81 9 -8 4 -7 1 1 -9z"/>
<path d="M1325 1980 l-30 -8 33 -1 c17 0 32 4 32 9 0 6 -1 9 -2 9 -2 -1 -16
-5 -33 -9z"/>
<path d="M1778 1913 c7 -3 16 -2 19 1 4 3 -2 6 -13 5 -11 0 -14 -3 -6 -6z"/>
<path d="M1713 1886 c2 -5 13 -10 24 -11 12 -1 19 3 17 10 -5 13 -46 15 -41 1z"/>
<path d="M1776 1879 c19 -21 29 -25 18 -8 -3 6 -1 15 6 19 7 5 2 8 -14 8 -26
0 -26 -1 -10 -19z"/>
<path d="M1924 1861 c0 -11 5 -17 13 -14 10 4 11 9 2 19 -15 18 -15 18 -15 -5z"/>
<path d="M1725 1761 c-3 -5 -1 -12 4 -15 5 -3 11 1 15 9 6 16 -9 21 -19 6z"/>
<path d="M130 1750 c0 -5 5 -10 10 -10 6 0 10 5 10 10 0 6 -4 10 -10 10 -5 0
-10 -4 -10 -10z"/>
<path d="M210 1420 c0 -5 -3 -9 -7 -9 -20 3 -43 -2 -43 -9 0 -5 17 -9 39 -9
32 0 38 3 33 19 -5 19 -22 25 -22 8z"/>
<path d="M2770 1410 c0 -5 5 -10 11 -10 5 0 7 5 4 10 -3 6 -8 10 -11 10 -2 0
-4 -4 -4 -10z"/>
<path d="M171 1364 c-17 -20 -12 -24 17 -13 13 5 20 13 17 19 -8 14 -18 12
-34 -6z"/>
<path d="M2690 1309 c0 -5 -4 -7 -10 -4 -5 3 -10 0 -10 -8 0 -8 7 -18 16 -21
9 -3 12 -2 9 5 -4 5 -1 16 5 24 9 11 9 15 1 15 -6 0 -11 -5 -11 -11z"/>
<path d="M1758 1303 c7 -3 16 -2 19 1 4 3 -2 6 -13 5 -11 0 -14 -3 -6 -6z"/>
<path d="M2710 1296 c0 -2 9 -6 20 -9 11 -3 20 -1 20 4 0 5 -9 9 -20 9 -11 0
-20 -2 -20 -4z"/>
<path d="M2727 1244 c-12 -13 3 -21 29 -16 19 3 22 7 12 13 -16 10 -32 11 -41
3z"/>
<path d="M1740 1219 c0 -5 5 -7 10 -4 6 3 10 8 10 11 0 2 -4 4 -10 4 -5 0 -10
-5 -10 -11z"/>
<path d="M2650 1219 c0 -5 5 -7 10 -4 6 3 10 8 10 11 0 2 -4 4 -10 4 -5 0 -10
-5 -10 -11z"/>
<path d="M1640 1126 c0 -2 7 -9 15 -16 9 -7 15 -8 15 -2 0 5 -7 12 -15 16 -8
3 -15 4 -15 2z"/>
<path d="M1884 1123 c4 -7 2 -13 -4 -13 -6 0 -8 -4 -5 -10 3 -5 10 -10 15 -10
10 0 7 27 -5 37 -4 4 -5 2 -1 -4z"/>
<path d="M1778 1113 c7 -3 16 -2 19 1 4 3 -2 6 -13 5 -11 0 -14 -3 -6 -6z"/>
<path d="M1002 1098 c-7 -7 -12 -17 -12 -24 0 -7 -8 -10 -19 -7 -23 6 -37 -13
-16 -21 8 -3 15 -1 15 5 0 6 7 6 19 -1 22 -11 30 -4 26 23 -2 9 1 15 6 11 5
-3 9 -11 9 -18 0 -7 8 -12 18 -11 20 1 62 35 62 50 0 5 -4 4 -9 -3 -4 -8 -11
-13 -15 -13 -32 5 -38 1 -25 -16 7 -10 0 -6 -17 9 -23 22 -33 25 -42 16z"/>
<path d="M1407 1088 c2 -5 -4 -9 -14 -9 -10 -1 -4 -4 12 -8 17 -4 41 -4 55 -1
14 4 33 6 43 4 9 -1 15 2 12 6 -3 5 3 10 12 13 10 2 3 4 -14 4 -18 0 -33 -4
-33 -9 0 -4 -7 -8 -15 -8 -8 0 -15 4 -15 9 0 5 -11 8 -24 7 -13 0 -22 -4 -19
-8z"/>
<path d="M1642 1088 c5 -15 28 -23 28 -10 0 5 -7 13 -16 16 -10 4 -14 1 -12
-6z"/>
<path d="M1907 1080 c-3 -11 -1 -18 3 -15 5 3 11 1 15 -5 9 -14 28 -12 22 3
-2 6 -10 11 -16 9 -7 -1 -10 2 -6 7 3 6 13 7 22 4 11 -4 14 -3 9 5 -12 19 -43
14 -49 -8z"/>
<path d="M1605 1080 c-3 -5 1 -10 9 -10 9 0 16 5 16 10 0 6 -4 10 -9 10 -6 0
-13 -4 -16 -10z"/>
<path d="M1710 1079 c0 -5 5 -7 10 -4 6 3 10 8 10 11 0 2 -4 4 -10 4 -5 0 -10
-5 -10 -11z"/>
<path d="M1782 1079 c2 -7 10 -15 17 -17 8 -3 12 1 9 9 -2 7 -10 15 -17 17 -8
3 -12 -1 -9 -9z"/>
<path d="M859 1078 c-7 -25 -7 -48 1 -48 6 0 10 11 10 25 0 20 -7 35 -11 23z"/>
<path d="M1555 1070 c3 -5 11 -10 16 -10 6 0 7 5 4 10 -3 6 -11 10 -16 10 -6
0 -7 -4 -4 -10z"/>
<path d="M1857 1064 c3 -8 9 -14 15 -14 5 0 6 -6 2 -12 -4 -7 -3 -9 1 -5 16
14 13 35 -5 40 -13 3 -17 0 -13 -9z"/>
<path d="M741 1048 c-10 -28 -5 -39 14 -31 17 6 20 23 4 23 -6 0 -9 7 -5 15 3
8 3 15 0 15 -2 0 -8 -10 -13 -22z"/>
<path d="M1090 1060 c0 -5 5 -10 10 -10 6 0 10 5 10 10 0 6 -4 10 -10 10 -5 0
-10 -4 -10 -10z"/>
<path d="M1121 1054 c0 -11 3 -14 6 -6 3 7 2 16 -1 19 -3 4 -6 -2 -5 -13z"/>
<path d="M2327 1043 c-3 -5 1 -14 9 -21 8 -7 14 -9 14 -3 0 10 19 9 38 -2 14
-10 16 2 2 23 -8 12 -11 13 -19 1 -6 -9 -11 -10 -15 -2 -8 13 -23 14 -29 4z"/>
<path d="M1912 1030 c10 -6 25 -7 40 -1 20 9 18 10 -17 10 -31 0 -36 -2 -23
-9z"/>
</g>
</svg>
